<svg width="119" height="35" viewBox="0 0 119 35" fill="none" xmlns="http://www.w3.org/2000/svg">
<path d="M35.0199 28.0004V7.63672H43.054C44.5985 7.63672 45.9143 7.9317 47.0014 8.52167C48.0885 9.105 48.9171 9.91703 49.4872 10.9578C50.0639 11.9919 50.3523 13.1851 50.3523 14.5373C50.3523 15.8896 50.0606 17.0828 49.4773 18.1169C48.8939 19.151 48.0488 19.9564 46.9418 20.5331C45.8414 21.1098 44.509 21.3981 42.9446 21.3981H37.8239V17.9478H42.2486C43.0772 17.9478 43.7599 17.8053 44.2969 17.5203C44.8404 17.2286 45.2448 16.8276 45.5099 16.3172C45.7817 15.8001 45.9176 15.2068 45.9176 14.5373C45.9176 13.8612 45.7817 13.2712 45.5099 12.7674C45.2448 12.257 44.8404 11.8626 44.2969 11.5842C43.7533 11.2992 43.0639 11.1566 42.2287 11.1566H39.3253V28.0004H35.0199ZM57.0142 28.2888C56.0398 28.2888 55.1714 28.1197 54.4091 27.7816C53.6468 27.437 53.0436 26.9299 52.5994 26.2603C52.1619 25.5842 51.9432 24.7424 51.9432 23.7348C51.9432 22.8863 52.099 22.1737 52.4105 21.597C52.7221 21.0203 53.1463 20.5563 53.6832 20.2049C54.2202 19.8536 54.83 19.5885 55.5128 19.4095C56.2022 19.2305 56.9247 19.1046 57.6804 19.0316C58.5687 18.9388 59.2846 18.8527 59.8281 18.7731C60.3717 18.687 60.7661 18.561 61.0114 18.3953C61.2566 18.2296 61.3793 17.9843 61.3793 17.6595V17.5998C61.3793 16.9701 61.1804 16.4829 60.7827 16.1382C60.3916 15.7935 59.8348 15.6211 59.1122 15.6211C58.3499 15.6211 57.7434 15.7902 57.2926 16.1282C56.8419 16.4597 56.5436 16.8773 56.3977 17.3811L52.4801 17.0629C52.679 16.1349 53.0701 15.3328 53.6534 14.6566C54.2367 13.9739 54.9891 13.4502 55.9105 13.0856C56.8385 12.7144 57.9124 12.5288 59.1321 12.5288C59.9806 12.5288 60.7926 12.6282 61.5682 12.8271C62.3504 13.026 63.0431 13.3342 63.6463 13.7518C64.2562 14.1694 64.7367 14.7064 65.0881 15.3626C65.4394 16.0122 65.6151 16.7911 65.6151 17.6993V28.0004H61.598V25.8825H61.4787C61.2334 26.3598 60.9053 26.7807 60.4943 27.1453C60.0833 27.5032 59.5895 27.785 59.0128 27.9905C58.4361 28.1893 57.7699 28.2888 57.0142 28.2888ZM58.2273 25.3655C58.8504 25.3655 59.4006 25.2428 59.8778 24.9976C60.3551 24.7457 60.7296 24.4076 61.0014 23.9834C61.2732 23.5591 61.4091 23.0785 61.4091 22.5416V20.9209C61.2765 21.007 61.0942 21.0866 60.8622 21.1595C60.6368 21.2258 60.3816 21.2888 60.0966 21.3484C59.8116 21.4014 59.5265 21.4512 59.2415 21.4976C58.9564 21.5373 58.6979 21.5738 58.4659 21.6069C57.9688 21.6799 57.5346 21.7959 57.1634 21.9549C56.7921 22.114 56.5038 22.3295 56.2983 22.6013C56.0928 22.8664 55.9901 23.1978 55.9901 23.5956C55.9901 24.1723 56.1989 24.6131 56.6165 24.918C57.0407 25.2163 57.5777 25.3655 58.2273 25.3655ZM75.782 34.0459C74.4098 34.0459 73.2332 33.8569 72.2521 33.4791C71.2777 33.1079 70.5021 32.6008 69.9254 31.9578C69.3487 31.3148 68.9742 30.5923 68.8018 29.7902L72.7195 29.2632C72.8388 29.5681 73.0277 29.8531 73.2862 30.1183C73.5447 30.3834 73.8861 30.5956 74.3104 30.7547C74.7412 30.9204 75.2649 31.0032 75.8814 31.0032C76.8028 31.0032 77.5618 30.7779 78.1584 30.3271C78.7616 29.883 79.0632 29.1372 79.0632 28.0899V25.2959H78.8842C78.6986 25.7201 78.4202 26.1211 78.049 26.499C77.6778 26.8768 77.2005 27.1851 76.6172 27.4237C76.0339 27.6623 75.3378 27.7816 74.5291 27.7816C73.3823 27.7816 72.3383 27.5165 71.397 26.9862C70.4624 26.4493 69.7166 25.6306 69.1598 24.5302C68.6096 23.4232 68.3345 22.0245 68.3345 20.3342C68.3345 18.6041 68.6162 17.159 69.1797 15.999C69.7431 14.8389 70.4922 13.9706 71.4268 13.3939C72.3681 12.8172 73.3989 12.5288 74.5192 12.5288C75.3743 12.5288 76.0902 12.6746 76.6669 12.9663C77.2436 13.2513 77.7076 13.6093 78.0589 14.0402C78.4169 14.4644 78.692 14.882 78.8842 15.293H79.0433V12.7277H83.2493V28.1495C83.2493 29.4488 82.9311 30.5359 82.2947 31.4109C81.6584 32.2859 80.7768 32.9422 79.6499 33.3797C78.5296 33.8238 77.2403 34.0459 75.782 34.0459ZM75.8714 24.5998C76.5542 24.5998 77.1309 24.4308 77.6016 24.0927C78.0788 23.748 78.4434 23.2575 78.6953 22.6211C78.9538 21.9781 79.0831 21.2092 79.0831 20.3143C79.0831 19.4194 78.9571 18.6439 78.7053 17.9876C78.4534 17.3247 78.0888 16.811 77.6115 16.4464C77.1342 16.0818 76.5542 15.8995 75.8714 15.8995C75.1754 15.8995 74.5888 16.0885 74.1115 16.4663C73.6342 16.8375 73.273 17.3546 73.0277 18.0174C72.7824 18.6803 72.6598 19.4459 72.6598 20.3143C72.6598 21.1959 72.7824 21.9583 73.0277 22.6013C73.2796 23.2376 73.6409 23.7315 74.1115 24.0828C74.5888 24.4275 75.1754 24.5998 75.8714 24.5998ZM93.5803 28.2987C92.0092 28.2987 90.657 27.9805 89.5234 27.3442C88.3965 26.7012 87.5282 25.793 86.9183 24.6197C86.3085 23.4398 86.0036 22.0444 86.0036 20.4336C86.0036 18.8626 86.3085 17.4838 86.9183 16.2973C87.5282 15.1107 88.3866 14.186 89.4936 13.5231C90.6072 12.8602 91.9131 12.5288 93.4112 12.5288C94.4188 12.5288 95.3568 12.6912 96.2251 13.016C97.1001 13.3342 97.8625 13.8148 98.5121 14.4578C99.1683 15.1008 99.6787 15.9095 100.043 16.8839C100.408 17.8517 100.59 18.9852 100.59 20.2845V21.4478H87.6939V18.8228H96.603C96.603 18.213 96.4704 17.6727 96.2053 17.2021C95.9401 16.7315 95.5722 16.3636 95.1016 16.0984C94.6375 15.8266 94.0973 15.6907 93.4808 15.6907C92.8378 15.6907 92.2678 15.8399 91.7706 16.1382C91.2801 16.4299 90.8956 16.8243 90.6172 17.3214C90.3388 17.812 90.1963 18.3588 90.1896 18.962V21.4578C90.1896 22.2135 90.3288 22.8664 90.6072 23.4166C90.8923 23.9668 91.2933 24.391 91.8104 24.6893C92.3274 24.9876 92.9406 25.1368 93.6499 25.1368C94.1205 25.1368 94.5514 25.0705 94.9425 24.9379C95.3336 24.8053 95.6683 24.6065 95.9467 24.3413C96.2251 24.0762 96.4373 23.7513 96.5831 23.3669L100.501 23.6254C100.302 24.5667 99.8942 25.3887 99.2777 26.0913C98.6679 26.7873 97.879 27.3309 96.9112 27.722C95.95 28.1065 94.8397 28.2987 93.5803 28.2987ZM116.062 17.0828L112.184 17.3214C112.118 16.99 111.975 16.6917 111.756 16.4265C111.538 16.1548 111.249 15.9393 110.891 15.7802C110.54 15.6145 110.119 15.5316 109.629 15.5316C108.972 15.5316 108.419 15.6709 107.968 15.9493C107.517 16.221 107.292 16.5856 107.292 17.043C107.292 17.4076 107.438 17.7158 107.729 17.9677C108.021 18.2196 108.522 18.4218 109.231 18.5743L111.995 19.1311C113.48 19.436 114.587 19.9265 115.316 20.6027C116.045 21.2788 116.41 22.1671 116.41 23.2674C116.41 24.2684 116.115 25.1467 115.525 25.9024C114.942 26.6581 114.139 27.248 113.119 27.6723C112.104 28.0899 110.934 28.2987 109.609 28.2987C107.587 28.2987 105.976 27.8778 104.776 27.0359C103.583 26.1874 102.884 25.034 102.678 23.5757L106.844 23.3569C106.97 23.9734 107.275 24.4441 107.759 24.7689C108.243 25.087 108.863 25.2461 109.619 25.2461C110.361 25.2461 110.958 25.1036 111.408 24.8186C111.866 24.5269 112.098 24.1524 112.104 23.695C112.098 23.3105 111.935 22.9957 111.617 22.7504C111.299 22.4985 110.808 22.3063 110.146 22.1737L107.501 21.6467C106.009 21.3484 104.899 20.8314 104.17 20.0956C103.447 19.3598 103.086 18.4218 103.086 17.2816C103.086 16.3006 103.351 15.4554 103.881 14.7461C104.418 14.0369 105.171 13.49 106.138 13.1055C107.113 12.721 108.253 12.5288 109.559 12.5288C111.488 12.5288 113.006 12.9365 114.113 13.7518C115.227 14.5672 115.876 15.6775 116.062 17.0828Z" fill="#F5F8FC"/>
<path d="M3.56348 25.4H24.5V3H3.5057C1.57228 3.00642 0.00635613 4.58725 0 6.53908V27.1646H0.00057783C0.00057783 27.1733 0 27.1821 0 27.1908C0 29.2558 1.60521 31 3.5057 31H24.5V29.1333H3.5057C2.63895 29.1333 1.84906 28.2076 1.84906 27.1908C1.84906 26.2202 2.63433 25.4 3.56348 25.4ZM5.54717 4.88592H11.0943V14.9671L8.29764 12.4885L5.54717 14.9525V4.88592ZM1.84906 6.55367C1.84617 5.62617 2.58695 4.87192 3.5057 4.86667H3.69811H5.54717H3.69811V17.4667H5.52637L8.30458 14.9782L11.1117 17.4667H12.9434V4.86667H22.6509V23.5333H5.55179H3.70274H3.56348C2.96196 23.5333 2.37141 23.692 1.84963 23.993V6.55367H1.84906Z" fill="#FFCA42"/>
</svg>
